Coordinates
version=1
nRows=13
nColumns=38
inDegrees=no

Units are S.I. units (second, meters, Newtons, ...)
If the header above contains a line with 'inDegrees', this indicates whether rotational values are in degrees (yes) or radians (no).

endheader
time	pelvis_tilt	pelvis_list	pelvis_rotation	pelvis_tx	pelvis_ty	pelvis_tz	hip_flexion_r	hip_adduction_r	hip_rotation_r	knee_angle_r	ankle_angle_r	subtalar_angle_r	mtp_angle_r	hip_flexion_l	hip_adduction_l	hip_rotation_l	knee_angle_l	ankle_angle_l	subtalar_angle_l	mtp_angle_l	lumbar_extension	lumbar_bending	lumbar_rotation	arm_flex_r	arm_add_r	arm_rot_r	elbow_flex_r	pro_sup_r	wrist_flex_r	wrist_dev_r	arm_flex_l	arm_add_l	arm_rot_l	elbow_flex_l	pro_sup_l	wrist_flex_l	wrist_dev_l
75	1.64847	1.55515	0.0460695	0.791571	-0.298399	1.06663	0.268759	-0.0227884	0.144844	0.779543	-0.22299	0	0	0.00919512	-0.00748432	-0.219504	0.328761	-0.149487	0	0	-0.155816	-0.0923278	-0.0218577	0.611612	0.00443843	-0.148947	0.977659	1.5708	0	0	0.651378	-0.299957	0.562793	1.13092	1.5708	0	0
75.01	1.53388	1.55689	0.160281	0.792876	-0.301829	1.06627	0.257824	-0.0268552	0.144039	0.78912	-0.219528	0	0	0.0133601	-0.00633732	-0.217995	0.326996	-0.150522	0	0	-0.152521	-0.095152	-0.0193928	0.604603	0.00369058	-0.150059	0.985405	1.5708	0	0	0.647271	-0.30041	0.562502	1.13529	1.5708	0	0
75.02	1.39279	1.55843	0.300954	0.794224	-0.305273	1.06592	0.246585	-0.0308793	0.143119	0.797226	-0.216671	0	0	0.0175957	-0.00515675	-0.216283	0.325533	-0.151559	0	0	-0.14931	-0.0979728	-0.0167942	0.59769	0.00263659	-0.150642	0.993253	1.5708	0	0	0.643175	-0.300818	0.561968	1.13969	1.5708	0	0
75.03	1.20259	1.55963	0.490584	0.795619	-0.308736	1.06553	0.235466	-0.0350228	0.142256	0.803925	-0.21474	0	0	0.0220028	-0.00392722	-0.214406	0.32393	-0.152571	0	0	-0.146164	-0.100812	-0.0138158	0.590774	0.00119095	-0.150849	1.00154	1.5708	0	0	0.639456	-0.301088	0.561576	1.14402	1.5708	0	0
75.04	0.975179	1.56038	0.717254	0.79709	-0.312224	1.06513	0.22437	-0.0393208	0.141009	0.809314	-0.213919	0	0	0.026716	-0.0027672	-0.212659	0.322721	-0.153383	0	0	-0.14325	-0.103607	-0.0103892	0.583947	-0.000391551	-0.151065	1.01008	1.5708	0	0	0.636334	-0.301287	0.56162	1.14799	1.5708	0	0
75.05	0.706959	1.56021	0.98449	0.798641	-0.315742	1.0647	0.213486	-0.0432914	0.140449	0.812542	-0.214474	0	0	0.0321738	-0.00167833	-0.210841	0.322033	-0.153935	0	0	-0.140129	-0.10639	-0.00658113	0.577205	-0.00193218	-0.151443	1.01865	1.5708	0	0	0.633309	-0.301403	0.561626	1.1518	1.5708	0	0
75.06	0.474681	1.55915	1.2156	0.800287	-0.319302	1.06426	0.202737	-0.0467728	0.140405	0.813617	-0.216646	0	0	0.0381914	-0.00095479	-0.208873	0.322416	-0.154141	0	0	-0.13712	-0.10906	-0.00257121	0.570743	-0.00342717	-0.151801	1.02716	1.5708	0	0	0.630474	-0.301693	0.56165	1.15576	1.5708	0	0
75.07	0.299241	1.55747	1.38963	0.802032	-0.322872	1.06382	0.192079	-0.0497613	0.140913	0.812926	-0.220726	0	0	0.0446374	-0.000569773	-0.20693	0.323705	-0.154082	0	0	-0.134212	-0.111507	0.00157569	0.564472	-0.00493554	-0.151797	1.03595	1.5708	0	0	0.627557	-0.30208	0.561209	1.16	1.5708	0	0
75.08	0.163995	1.55571	1.5236	0.803802	-0.32647	1.06339	0.180675	-0.0526084	0.140873	0.809719	-0.226303	0	0	0.0509871	-0.000178773	-0.204461	0.325198	-0.153986	0	0	-0.1316	-0.113861	0.00557403	0.558615	-0.00642927	-0.151637	1.0445	1.5708	0	0	0.624907	-0.302368	0.560591	1.16404	1.5708	0	0
75.09	0.0469453	1.55419	1.63977	0.805589	-0.330151	1.06301	0.168725	-0.0557263	0.140124	0.804062	-0.234274	0	0	0.0571398	0.000400796	-0.201385	0.326896	-0.154055	0	0	-0.129607	-0.116375	0.00915716	0.553471	-0.00790309	-0.151267	1.05228	1.5708	0	0	0.623018	-0.302755	0.560419	1.16758	1.5708	0	0
75.1	-0.0534869	1.55263	1.73946	0.807449	-0.333878	1.06264	0.156916	-0.0587858	0.138644	0.796604	-0.247147	0	0	0.0634073	0.000862521	-0.198409	0.328863	-0.154345	0	0	-0.128241	-0.118996	0.0131003	0.548138	-0.00943944	-0.151565	1.06109	1.5708	0	0	0.622052	-0.303096	0.561082	1.17103	1.5708	0	0
75.11	-0.126942	1.55052	1.81156	0.809442	-0.337545	1.06218	0.145992	-0.0613821	0.137167	0.787891	-0.25995	0	0	0.070222	0.000876871	-0.196914	0.331189	-0.154586	0	0	-0.126024	-0.121544	0.0174411	0.543056	-0.0107707	-0.151669	1.06892	1.5708	0	0	0.620794	-0.303547	0.561498	1.17432	1.5708	0	0
75.12	-0.187564	1.54826	1.87081	0.811472	-0.341239	1.0617	0.135208	-0.0639316	0.135065	0.77734	-0.267728	0	0	0.0770428	0.000978433	-0.195536	0.33317	-0.155048	0	0	-0.123593	-0.123926	0.0210689	0.53897	-0.0115348	-0.151267	1.07513	1.5708	0	0	0.619017	-0.304594	0.561226	1.17791	1.5708	0	0
